# xmcd
#
# Track frame offsets: 
#        150
#        8646
#        21016
#        35139
#        45055
#        54132
#        65725
#        74682
#        86914
#        98206
#
# Disc length: 1477 seconds
#
# Revision: 0
# Processed by: cddbd v1.5.2PL0 Copyright (c) Steve Scherf et al.
# Submitted via: ExactAudioCopy v0.99pb3
#
DISCID=7d05c30a
DTITLE=Baby Eagle - Baby Eagle
DYEAR=2006
DGENRE=Blues
TTITLE0=Some Things We Lose
TTITLE1=Redpath Sugar Factory
TTITLE2=Half Moon On The City High
TTITLE3=Let Wander Your Restless Heart
TTITLE4=Your Wounded Jaw, Our Dead Remains
TTITLE5=High Winds At Sea
TTITLE6=Long Dying Days Of The Holiday
TTITLE7=Lady Come Greet Me
TTITLE8=Through The Darkness Comes A Train
TTITLE9=Sweet Babe By The Lamplight
EXTD=
EXTT0=
EXTT1=
EXTT2=
EXTT3=
EXTT4=
EXTT5=
EXTT6=
EXTT7=
EXTT8=
EXTT9=
PLAYORDER=
